<svg width="239" height="188" viewBox="0 0 239 188" fill="none" xmlns="http://www.w3.org/2000/svg">
<g clip-path="url(#clip0_31_1914)">
<path fill-rule="evenodd" clip-rule="evenodd" d="M98.3564 17.979C98.3027 18.7862 97.6935 19.4458 97.0022 19.4458C96.3108 19.4458 95.7451 19.823 95.7451 20.284C95.7451 20.7451 96.2831 21.1223 96.941 21.1223C97.598 21.1223 98.3086 21.7819 98.5198 22.5891C98.8617 23.8976 98.9137 23.9043 99 22.6478C99.0536 21.8724 99.9461 21.072 100.983 20.8683L102.868 20.4969L101.028 19.8851C100.016 19.5489 99.0218 18.652 98.8206 17.8926C98.4988 16.6831 98.4419 16.694 98.3564 17.979ZM37.5627 24.1155C35.7694 25.9101 35.9093 28.3292 37.9222 30.3426C39.9393 32.3601 41.1402 32.4389 43.6015 30.7139C45.6127 29.3057 45.9772 26.9998 44.597 24.4198C43.5286 22.424 39.4315 22.2471 37.5627 24.1155ZM43.5294 25.8464C44.2224 27.6536 42.7333 29.9235 40.8553 29.9235C38.9773 29.9235 37.4882 27.6536 38.1812 25.8464C38.8692 24.0535 42.8414 24.0535 43.5294 25.8464ZM159.126 28.7625C157.678 30.8304 158.127 32.5471 160.441 33.7851C163.55 35.4506 166.827 30.5286 164.295 27.9956C162.759 26.4591 160.504 26.7936 159.126 28.7625ZM69.5782 43.3843C68.322 44.0657 66.9083 45.3465 66.4356 46.2291C65.9555 47.1277 65.5767 53.5476 65.5767 60.8014V73.7677L57.546 74.0577C49.6863 74.3427 49.4625 74.4072 47.0708 77.0862L44.6263 79.8237V107.013C44.6263 126.308 44.9171 134.84 45.6278 136.4C47.7647 141.092 46.3057 140.986 109.099 140.986H166.949L169.686 138.542L172.423 136.099L172.691 122.616L172.958 109.134H179.645C186.763 109.134 190.549 107.874 192.091 104.989C193.265 102.798 193.265 48.4135 192.091 46.2224C189.851 42.0356 190.453 42.075 129.098 42.111C80.2201 42.1395 71.5282 42.3256 69.5782 43.3843ZM211.488 53.1838C211.434 53.9901 210.825 54.6506 210.134 54.6506C209.443 54.6506 208.877 55.0278 208.877 55.4888C208.877 55.9499 209.415 56.3271 210.073 56.3271C210.73 56.3271 211.44 56.9876 211.652 57.7939C211.993 59.1024 212.045 59.1091 212.132 57.8526C212.185 57.0773 213.077 56.2768 214.114 56.0731L216 55.7018L214.16 55.0899C213.147 54.7537 212.154 53.8569 211.952 53.0974C211.631 51.8879 211.574 51.8988 211.488 53.1838ZM24.514 112.906C24.514 113.598 23.9484 114.164 23.257 114.164C22.5657 114.164 22 114.541 22 115.002C22 115.463 22.5657 115.84 23.257 115.84C23.9484 115.84 24.514 116.406 24.514 117.097C24.514 117.789 24.8911 118.355 25.3521 118.355C25.813 118.355 26.1901 117.789 26.1901 117.097C26.1901 116.406 26.7557 115.84 27.4471 115.84C28.1384 115.84 28.7041 115.463 28.7041 115.002C28.7041 114.541 28.1384 114.164 27.4471 114.164C26.7557 114.164 26.1901 113.598 26.1901 112.906C26.1901 112.215 25.813 111.649 25.3521 111.649C24.8911 111.649 24.514 112.215 24.514 112.906ZM193.769 123.427C192.388 126.009 193.109 128.628 195.582 130.012C197.56 131.119 198.017 131.098 199.981 129.81C202.288 128.298 202.752 126.032 201.305 123.329C200.074 121.026 195.019 121.092 193.769 123.427ZM200.238 124.755C200.931 126.562 199.442 128.832 197.564 128.832C196.742 128.832 195.687 128.224 195.217 127.479C193.937 125.449 195.12 123.384 197.564 123.384C198.779 123.384 199.939 123.979 200.238 124.755ZM88.3706 164.624C86.0284 166.967 88.1536 172 91.4847 172C93.2495 172 95.7451 169.459 95.7451 167.663C95.7451 164.589 90.5469 162.447 88.3706 164.624Z" fill="#FFC862"/>
<rect x="80" y="61" width="71" height="6" rx="3" fill="#F9F8F6"/>
<rect x="64" y="96" width="56" height="5" rx="2.5" fill="#F9F8F6"/>
<rect x="64" y="109" width="87" height="5" rx="2.5" fill="#F9F8F6"/>
</g>
<defs>
<clipPath id="clip0_31_1914">
<rect width="238" height="188" fill="white" transform="translate(0.0253906)"/>
</clipPath>
</defs>
</svg>
